<?xml version="1.0" encoding="utf-8"?>
<!-- Generator: Adobe Illustrator 25.2.1, SVG Export Plug-In . SVG Version: 6.00 Build 0)  -->
<svg version="1.1" id="Layer_1" xmlns="http://www.w3.org/2000/svg" xmlns:xlink="http://www.w3.org/1999/xlink" x="0px" y="0px"
	 viewBox="0 0 432 432" style="enable-background:new 0 0 432 432;" xml:space="preserve">
<style type="text/css">
	.st0{fill:#F15A29;}
</style>
<path class="st0" d="M216,0C96.7,0,0,96.7,0,216s96.7,216,216,216s216-96.7,216-216S335.3,0,216,0z M216,66.2
	c36.1,0,65.3,29.3,65.3,65.3c0,36.1-29.3,65.3-65.3,65.3s-65.3-29.3-65.3-65.3C150.7,95.5,179.9,66.2,216,66.2z M312.7,327.6H119.3
	c-9.8,0-17.7-7.9-17.7-17.7c0-48.9,39.6-88.5,88.5-88.5h51.8c48.9,0,88.5,39.6,88.5,88.5C330.4,319.7,322.4,327.6,312.7,327.6z"/>
</svg>
